<svg width="114" height="110" viewBox="0 0 114 110" xmlns="http://www.w3.org/2000/svg">
    <g fill="none" fill-rule="evenodd">
        <path d="M72.778 55.175v-13.71h4.104v13.969c0 2.012 1.564 3.593 3.631 3.593 2.067 0 3.72-1.58 3.72-3.593v-13.97h4.104v13.711c0 5.001-3.307 7.56-7.794 7.56-4.488 0-7.765-2.559-7.765-7.56m28.71.18c0-2.214-1.705-3.852-3.94-3.852-2.177 0-3.765 1.724-3.765 3.851s1.588 3.88 3.764 3.88c2.236 0 3.942-1.667 3.942-3.88M93.9 61.161v8.019h-4.029V48.197h4.03v1.639c.94-1.121 2.44-1.926 4.41-1.926 3.325 0 7.12 2.385 7.12 7.473 0 5.059-3.942 7.473-7.06 7.473-1.941 0-3.53-.632-4.47-1.695" fill="#FDD301"/>
        <path d="m8.57 59.16 3.717-2.894c1.055 1.794 2.723 2.836 4.625 2.836 2.079 0 3.191-1.331 3.191-2.778 0-1.736-2.137-2.286-4.42-2.98-2.869-.868-6.06-1.968-6.06-6.018 0-3.385 2.987-6.076 7.114-6.076 3.483 0 5.474 1.302 7.2 3.067l-3.365 2.517c-.879-1.302-2.137-1.996-3.806-1.996-1.902 0-2.927 1.012-2.927 2.343 0 1.62 2.049 2.17 4.333 2.922 2.897.927 6.176 2.2 6.176 6.25 0 3.356-2.693 6.596-7.406 6.596-3.864 0-6.44-1.62-8.372-3.79m16.874-17.694h3.99v8.22c.969-1.154 2.377-1.875 4.05-1.875 3.463 0 5.546 2.192 5.546 5.913v8.797h-4.078v-8.25c0-1.96-.91-3.085-2.7-3.085-1.526 0-2.788 1.038-2.788 3.46v7.875h-4.02V41.465zm25.92 13.965c0-2.054-1.634-3.76-3.677-3.76-2.073 0-3.65 1.706-3.65 3.76 0 2.053 1.577 3.76 3.65 3.76 2.043 0 3.678-1.707 3.678-3.76m-11.239 0c0-4.165 3.357-7.52 7.56-7.52 4.204 0 7.56 3.355 7.56 7.52 0 4.164-3.356 7.52-7.56 7.52-4.203 0-7.56-3.356-7.56-7.52m27.834-.076c0-2.213-1.706-3.851-3.941-3.851-2.176 0-3.765 1.724-3.765 3.851s1.589 3.88 3.765 3.88c2.235 0 3.941-1.667 3.941-3.88m-7.588 5.807v8.019h-4.03V48.197h4.03v1.639c.94-1.121 2.441-1.926 4.411-1.926 3.324 0 7.119 2.385 7.119 7.473 0 5.059-3.942 7.473-7.06 7.473-1.941 0-3.53-.632-4.47-1.695" fill="#FFF"/>
    </g>
</svg>
